:version 1.10
:name ASF
:units
  mass 1
  length 1
  angle deg
:documentation
  ASF file generated by Kaydara
:root
  axis xyz
  order  tx ty tz rx ry rz
  position 0 0 0
  orientation 0 0 0
:bonedata
  begin
    id 1
    name RightUpLegDummy
    direction -0.718183 -0.695806 0.00816078
    length 4.904
    axis 0 0 0 xyz
  end
  begin
    id 2
    name RightUpLeg
    direction 3.53989e-006 -0.995788 0.0916897
    length 17.4976
    axis -3.49089 -0.000906621 0.000287158 xyz
    dof rx ry rz
  end
  begin
    id 3
    name RightLeg
    direction 0.00371093 -0.995096 -0.0988418
    length 16.5821
    axis 3.68512 0.0193738 -0.131023 xyz
    dof rx ry rz
  end
  begin
    id 4
    name RightFoot
    direction 0.000791514 -0.46099 0.887405
    length 3.77069
    axis 4.84075e-005 -0.120479 -0.188788 xyz
    dof rx ry rz
  end
  begin
    id 5
    name RightToes
    direction 0.00124746 -0.014064 0.9999
    length 3.85082
    axis 0.00048216 0.542163 -0.142577 xyz
    dof rx ry rz
  end
  begin
    id 6
    name SpineDummy
    direction 8.36599e-015 1 5.97571e-016
    length 4.6813
    axis 0 0 0 xyz
  end
  begin
    id 7
    name Spine
    direction -4.63632e-008 0.999988 0.00495137
    length 10.1015
    axis -0.00138897 0.000121419 3.25764e-006 xyz
    dof rx ry rz
  end
  begin
    id 8
    name Spine1
    direction 0 0 0
    length 0
    axis -0.00138896 0.000121452 2.39764e-006 xyz
    dof rx ry rz
  end
  begin
    id 9
    name HEadDummy
    direction -3.91456e-008 0.999999 0.00127422
    length 3.43865
    axis -0.00138896 0.000121452 2.39764e-006 xyz
  end
  begin
    id 10
    name HEad
    direction -0.0222688 0.980941 0.193023
    length 5.12695
    axis -0.00138895 0.000121452 2.39764e-006 xyz
    dof rx ry rz
  end
  begin
    id 11
    name LeftShoulder1Dummy
    direction 0.998891 -0.0402508 -0.0244456
    length 3.5433
    axis -0.00138896 0.000121452 2.39764e-006 xyz
  end
  begin
    id 12
    name LeftShoulder1
    direction 0.99951 -0.000327743 0.0313091
    length 4.05031
    axis -0.00138896 0.000121452 2.39764e-006 xyz
    dof rx ry rz
  end
  begin
    id 13
    name LeftArm
    direction 0.998561 -0.00100054 -0.0536182
    length 10.3537
    axis -23.1894 0.134784 0.96751 xyz
    dof rx ry rz
  end
  begin
    id 14
    name LeftForeArm
    direction 0.998903 0.00866434 0.046012
    length 8.70632
    axis -9.91835 -0.06569 -0.177792 xyz
    dof rx ry rz
  end
  begin
    id 15
    name LeftHand
    direction 0.992938 -0.0411636 0.11126
    length 5.32135
    axis -0.00960227 -0.00340091 0.185174 xyz
    dof rx ry rz
  end
  begin
    id 16
    name RightShoulderDummy
    direction -0.998891 -0.0402509 -0.0244414
    length 3.5433
    axis -0.00138896 0.000121452 2.39764e-006 xyz
  end
  begin
    id 17
    name RightShoulder
    direction -0.99951 -0.000327827 0.0313133
    length 4.05031
    axis 0.215806 0.000203644 -0.00680151 xyz
    dof rx ry rz
  end
  begin
    id 18
    name RightArm
    direction -0.998573 -0.000999583 -0.053403
    length 10.3947
    axis -23.2009 -0.134239 -0.9641 xyz
    dof rx ry rz
  end
  begin
    id 19
    name RightForeArm
    direction -0.998898 0.00868026 0.0461306
    length 8.68355
    axis -9.92322 0.0658061 0.178869 xyz
    dof rx ry rz
  end
  begin
    id 20
    name RightHand
    direction -0.992843 -0.0414603 0.112003
    length 5.28593
    axis -0.00960634 0.00330671 -0.185226 xyz
    dof rx ry rz
  end
  begin
    id 21
    name LeftUpLegDummy
    direction 0.718183 -0.695806 0.00816078
    length 4.904
    axis 0 0 0 xyz
  end
  begin
    id 22
    name LeftUpLeg
    direction -6.8115e-006 -0.995793 0.0916336
    length 17.4976
    axis -3.48766 0.00143441 -0.000523914 xyz
    dof rx ry rz
  end
  begin
    id 23
    name LeftLeg
    direction -0.00601357 -0.995091 -0.0987824
    length 16.5821
    axis 3.68177 -0.00654038 -0.00028478 xyz
    dof rx ry rz
  end
  begin
    id 24
    name LeftFoot
    direction -0.00417578 -0.460984 0.887399
    length 3.77069
    axis 1.87232e-006 4.66002e-005 -8.1837e-006 xyz
    dof rx ry rz
  end
  begin
    id 25
    name LeftToes
    direction 0.00818058 -0.00485161 0.999955
    length 3.85048
    axis 1.06246e-005 4.65855e-005 -8.18502e-006 xyz
    dof rx ry rz
  end
:hierarchy
  begin
    root RightUpLegDummy SpineDummy LeftUpLegDummy
    RightUpLegDummy RightUpLeg
    RightUpLeg RightLeg
    RightLeg RightFoot
    RightFoot RightToes
    SpineDummy Spine
    Spine Spine1
    Spine1 HEadDummy LeftShoulder1Dummy RightShoulderDummy
    HEadDummy HEad
    LeftShoulder1Dummy LeftShoulder1
    LeftShoulder1 LeftArm
    LeftArm LeftForeArm
    LeftForeArm LeftHand
    RightShoulderDummy RightShoulder
    RightShoulder RightArm
    RightArm RightForeArm
    RightForeArm RightHand
    LeftUpLegDummy LeftUpLeg
    LeftUpLeg LeftLeg
    LeftLeg LeftFoot
    LeftFoot LeftToes
  end

# generated from PmQm by Jehee Lee
:FULLY-SPECIFIED
:DEGREES
1
root -15.1592 37.7915 12.2456 179.485 -0.95192 -176.243
RightUpLeg 6.34447 3.77034 4.71742
RightLeg 16.6743 0.859613 0.01107270002
RightFoot -20.9172 -0.0628715 0.940776
RightToes -0.000541893 -0.000659172 -0.000493268
Spine 1.08124 2.08521 1.11421
Spine1 2.09171 4.07313 3.59143
HEad 15.1574 -10.5775 -5.89066
LeftShoulder1 -3.88251e-019 -0 -3.92111e-022
LeftArm -36.997 6.4081 -83.9936
LeftForeArm 35.6816 1.80483 2.2783
LeftHand -0.675679 -4.58077 8.15107
RightShoulder 7.45443e-017 -2.42657e-020 1.96277e-018
RightArm -12.0308 -6.84823 73.1246
RightForeArm 25.1274 10.5794 11.5212
RightHand -1.33407 10.9839 -9.82117
LeftUpLeg -23.0287 3.98012 5.74103
LeftLeg 1.27645 -9.18835 1.02145
LeftFoot 2.46883 0.619254 -5.16697
LeftToes 3.91355e-005 3.11907e-005 -4.10385e-006
2
root -15.7774 37.8103 10.5781 179.321 -0.144867 -177.967
RightUpLeg 8.71216 4.22932 1.81628
RightLeg 17.8264 1.54797 0.329155
RightFoot -20.5395 0.12667 3.28416
RightToes -0.000541893 -0.000659172 -0.000493268
Spine 1.16479 2.0645 0.43969
Spine1 2.21442 3.95417 2.38727
HEad 15.6713 -10.4386 -5.71797
LeftShoulder1 -3.88251e-019 -0 -3.92111e-022
LeftArm -38.4343 9.02983 -83.6492
LeftForeArm 34.7801 1.78706 4.16214
LeftHand -0.619471 -3.94841 7.96562
RightShoulder 7.45443e-017 -2.42657e-020 1.96277e-018
RightArm -12.1672 -7.24522 73.8593
RightForeArm 25.5112 10.5847 11.5258
RightHand -1.34397 10.9344 -9.91902
LeftUpLeg -20.8817 2.82262 3.95201
LeftLeg 2.54029 -4.36245 0.746485
LeftFoot 9.67769 1.03897 -6.02179
LeftToes 3.91355e-005 3.11907e-005 -4.10385e-006
3
root -16.4554 37.8896 8.84369 179.005 0.381073 179.667
RightUpLeg 10.1264 3.87372 -2.20223
RightLeg 20.8339 2.8067 0.981568
RightFoot -18.5554 0.330041 7.21983
RightToes -0.000541893 -0.000659172 -0.000493268
Spine 1.12876 1.96714 -0.447661
Spine1 2.08571 3.66641 0.790263
HEad 16.9914 -10.6447 -5.40517
LeftShoulder1 -3.88251e-019 -0 -3.92111e-022
LeftArm -39.5201 13.1928 -83.4579
LeftForeArm 32.3193 1.86644 4.18497
LeftHand -0.552925 -3.67126 7.34095
RightShoulder 7.45443e-017 -2.42657e-020 1.96277e-018
RightArm -14.5981 -8.50857 74.6541
RightForeArm 27.8305 9.76074 11.5262
RightHand -1.32172 10.707 -9.89311
LeftUpLeg -19.4198 1.03548 1.16426
LeftLeg 5.53434 -2.19403 0.220076
LeftFoot 11.8386 0.706895 -3.76273
LeftToes 3.91355e-005 3.11907e-005 -4.10385e-006
4
root -17.0665 38.0038 7.20521 178.858 0.919632 176.803
RightUpLeg 8.75266 2.88919 -6.89524
RightLeg 27.551 3.18592 1.60464
RightFoot -13.2732 0.0815031 11.0467
RightToes -0.000541893 -0.000659172 -0.000493268
Spine 1.06025 1.98315 -1.67227
Spine1 1.86749 3.57817 -1.22394
HEad 18.7728 -11.3766 -4.85978
LeftShoulder1 -3.88251e-019 -0 -3.92111e-022
LeftArm -39.8534 16.9734 -83.028
LeftForeArm 31.8487 1.90452 3.09542
LeftHand -0.496888 -4.03504 6.39443
RightShoulder 7.45443e-017 -2.42657e-020 1.96277e-018
RightArm -17.7831 -10.16 75.5156
RightForeArm 30.6663 8.63239 11.3981
RightHand -1.20713 10.2344 -9.33186
LeftUpLeg -17.9465 -0.600375 -2.00599
LeftLeg 8.55027 -0.525909 -0.579658
LeftFoot 7.46733 0.431429 -2.87115
LeftToes 3.91355e-005 3.11907e-005 -4.10385e-006
5
root -17.6051 38.0669 5.78707 179.133 2.79457 174.561
RightUpLeg 3.37086 2.82321 -10.4935
RightLeg 38.4295 1.12802 0.693585
RightFoot -3.58934 -0.733008 10.4294
RightToes -0.000541893 -0.000659172 -0.000493268
Spine 1.00836 2.46745 -2.9101
Spine1 1.66176 4.40347 -2.82284
HEad 20.1436 -12.2432 -4.2826
LeftShoulder1 -3.88251e-019 -0 -3.92111e-022
LeftArm -39.5191 19.0898 -82.3581
LeftForeArm 33.1032 1.90615 2.18427
LeftHand -0.469754 -4.28983 5.91427
RightShoulder 7.45443e-017 -2.42657e-020 1.96277e-018
RightArm -19.4458 -11.3484 76.2576
RightForeArm 32.8078 7.93895 11.2432
RightHand -0.976669 9.55076 -7.95393
LeftUpLeg -16.3238 -1.42534 -4.36553
LeftLeg 9.75544 2.72207 -0.828841
LeftFoot 3.50336 0.465855 -3.73918
LeftToes 3.91355e-005 3.11907e-005 -4.10385e-006
6
root -18.1039 38.0388 4.57249 179.144 5.94281 173.353
RightUpLeg -3.9415 3.86865 -12.3725
RightLeg 50.0212 -1.11151 -1.75702
RightFoot 6.20682 -0.780298 5.29197
RightToes -0.000541893 -0.000659172 -0.000493268
Spine 1.13833 2.97282 -3.65834
Spine1 1.87708 5.34238 -3.56556
HEad 20.3906 -12.2247 -4.0815
LeftShoulder1 -3.88251e-019 -0 -3.92111e-022
LeftArm -39.3289 20.3257 -81.8607
LeftForeArm 32.9365 1.95228 1.41898
LeftHand -0.514958 -4.08913 6.57997
RightShoulder 7.45443e-017 -2.42657e-020 1.96277e-018
RightArm -17.6719 -11.2799 76.5205
RightForeArm 33.8939 8.11129 11.551
RightHand -0.833296 9.18022 -7.00945
LeftUpLeg -15.1078 -1.86062 -5.98285
LeftLeg 11.0221 6.25218 -0.09939
LeftFoot 1.10321 0.364828 -3.39148
LeftToes 3.91355e-005 3.11907e-005 -4.10385e-006
